<?xml version="1.0" standalone="no"?>
<!DOCTYPE svg PUBLIC "-//W3C//DTD SVG 20010904//EN"
 "http://www.w3.org/TR/2001/REC-SVG-20010904/DTD/svg10.dtd">
<svg version="1.0" xmlns="http://www.w3.org/2000/svg"
 width="1040.000000pt" height="1040.000000pt" viewBox="0 0 1040.000000 1040.000000"
 preserveAspectRatio="xMidYMid meet">
<metadata>
Created by potrace 1.11, written by Peter Selinger 2001-2013
</metadata>
<g transform="translate(0.000000,1040.000000) scale(0.100000,-0.100000)"
fill="#000000" stroke="none">
<path d="M769 10397 c-2 -7 -9 -73 -14 -137 -3 -41 -7 -91 -10 -110 -2 -19 -6
-66 -10 -105 -3 -38 -8 -83 -10 -100 -3 -16 -7 -55 -10 -85 -4 -30 -8 -66 -10
-80 -2 -14 -7 -52 -11 -85 -3 -33 -8 -67 -9 -75 -2 -9 -6 -43 -10 -75 -4 -33
-8 -71 -10 -85 -2 -14 -7 -50 -11 -80 -3 -30 -8 -66 -10 -80 -4 -36 -13 -107
-19 -165 -3 -27 -8 -61 -10 -75 -8 -54 -19 -136 -20 -150 -4 -51 -23 -207 -30
-250 -3 -14 -7 -54 -11 -90 -8 -78 -10 -99 -18 -170 -4 -30 -9 -75 -11 -100
-3 -25 -7 -67 -10 -95 -4 -27 -8 -72 -10 -100 -2 -27 -5 -50 -5 -50 -3 0 -10
-100 -13 -162 -1 -29 -4 -53 -7 -53 -3 0 -6 -21 -7 -48 0 -26 -4 -78 -7 -117
-4 -38 -9 -97 -11 -130 -2 -33 -4 -60 -5 -60 -2 0 -3 -28 -15 -230 -3 -66 -8
-140 -10 -165 -27 -314 -26 -1318 0 -1670 2 -30 6 -93 10 -140 3 -47 8 -103
11 -125 3 -22 7 -60 9 -85 2 -25 4 -45 5 -45 1 0 3 -16 5 -35 2 -19 6 -48 10
-65 3 -16 8 -43 11 -60 2 -16 7 -41 11 -55 3 -14 6 -28 5 -33 -1 -4 3 -26 8
-50 6 -23 13 -53 16 -66 17 -82 61 -240 94 -346 12 -38 22 -71 21 -72 0 -2 8
-23 19 -48 11 -25 19 -46 19 -48 -4 -25 204 -487 223 -495 5 -2 8 -9 8 -15 0
-42 294 -486 405 -611 6 -6 42 -47 80 -91 117 -134 312 -320 401 -384 19 -13
34 -28 34 -33 0 -4 6 -8 13 -8 8 0 22 -9 33 -21 21 -24 226 -163 294 -200 25
-13 50 -29 56 -34 6 -6 31 -19 55 -30 24 -11 46 -22 49 -25 14 -16 337 -156
380 -165 8 -2 49 -15 90 -29 41 -13 95 -30 120 -37 49 -13 53 -14 90 -23 14
-3 39 -8 55 -12 17 -3 41 -8 55 -9 14 -2 26 -4 28 -5 4 -4 15 -6 82 -15 36 -4
76 -10 90 -12 112 -16 452 -22 580 -9 151 14 244 29 446 72 59 12 167 49 237
81 42 20 80 34 83 31 6 -7 53 -143 59 -171 2 -9 7 -22 10 -27 6 -9 38 -113 51
-163 2 -9 6 -25 9 -35 14 -54 25 -98 48 -197 14 -60 28 -121 31 -135 2 -14 9
-47 15 -73 6 -26 14 -66 16 -89 3 -22 8 -45 11 -50 3 -4 7 -25 9 -46 3 -20 7
-48 10 -62 3 -14 8 -47 11 -74 3 -28 7 -53 10 -57 2 -4 7 -31 10 -61 3 -29 7
-55 9 -58 2 -3 7 -37 10 -75 4 -39 9 -73 11 -77 3 -4 7 -31 10 -60 2 -29 6
-66 9 -83 2 -16 7 -52 10 -80 3 -27 8 -70 11 -95 5 -46 8 -78 19 -190 5 -54 8
-82 14 -108 1 -2 14 8 31 21 16 14 39 28 50 32 11 3 20 11 20 16 0 5 7 9 15 9
8 0 15 5 15 10 0 6 7 10 15 10 8 0 15 3 15 8 0 4 9 12 19 17 11 6 82 52 159
103 l139 93 -14 42 c-8 23 -17 51 -20 62 -2 11 -5 25 -7 30 -2 6 -6 24 -10 40
-4 17 -11 39 -16 50 -4 11 -24 76 -43 145 -20 69 -47 162 -60 207 -14 46 -23
83 -20 83 2 0 -2 10 -8 22 -7 13 -16 38 -21 58 -14 55 -15 58 -52 179 -19 63
-33 118 -30 122 2 4 0 9 -6 11 -5 1 -11 12 -13 23 -4 20 -16 70 -22 90 -1 6
-2 13 -1 16 0 3 -5 13 -13 22 -7 10 -11 17 -7 17 3 0 1 12 -5 27 -6 16 -12 35
-14 43 -2 8 -17 60 -35 115 -17 55 -43 138 -57 185 -38 124 -102 326 -125 394
-11 32 -21 63 -22 70 -1 6 -5 17 -9 24 -5 6 -5 12 -1 12 3 0 2 6 -4 13 -6 7
-13 24 -16 37 -6 31 -96 287 -123 350 -3 8 -7 17 -8 20 -1 3 -7 19 -14 35 -29
73 -102 257 -131 335 -17 47 -35 94 -40 105 -7 18 -21 53 -25 65 -1 3 -7 18
-13 33 -7 16 -12 32 -12 37 0 5 -6 21 -14 37 -8 15 -22 48 -31 73 -10 25 -22
54 -27 65 -5 12 -10 27 -12 35 -1 8 -10 32 -19 54 -9 21 -17 42 -17 47 0 5 -4
17 -9 27 -11 19 -65 157 -109 277 -36 95 -119 312 -132 340 -4 11 -48 119 -95
240 -48 121 -94 236 -102 255 -22 52 -35 83 -43 105 -5 11 -15 36 -23 55 -8
19 -31 76 -52 125 -20 50 -46 109 -56 132 -10 24 -19 45 -19 48 0 2 -11 28
-24 57 -24 52 -159 355 -193 433 -56 127 -329 655 -365 708 -11 15 -16 27 -12
27 4 0 0 8 -8 18 -8 9 -29 42 -45 72 -35 64 -58 105 -102 178 -17 29 -31 56
-31 59 0 3 -11 21 -25 38 -13 18 -22 35 -20 37 3 3 -4 13 -15 23 -11 10 -20
22 -20 27 0 8 -98 176 -110 188 -3 3 -16 25 -29 50 -13 25 -37 64 -53 88 -15
24 -28 45 -28 47 0 5 -92 158 -100 165 -3 3 -16 25 -29 50 -13 25 -33 61 -46
80 -32 50 -185 311 -185 317 0 2 -7 11 -15 19 -8 9 -15 23 -14 32 0 11 2 12 6
5 2 -7 19 -28 36 -46 68 -71 299 -337 348 -402 13 -16 26 -32 29 -35 7 -5 201
-249 237 -296 12 -16 47 -63 77 -104 31 -41 62 -82 69 -90 23 -26 264 -367
278 -391 6 -13 15 -26 19 -29 19 -13 430 -653 430 -669 0 -4 9 -16 20 -26 10
-9 19 -20 18 -24 -3 -11 25 -61 34 -61 4 0 8 -4 8 -10 0 -8 56 -107 90 -160 6
-8 13 -22 17 -30 4 -8 16 -31 28 -50 12 -19 39 -66 60 -105 21 -38 71 -130
112 -204 40 -74 73 -138 73 -142 0 -5 4 -9 10 -9 5 0 9 -3 8 -7 -2 -10 20 -58
49 -105 13 -21 20 -38 16 -38 -5 0 -3 -4 3 -8 6 -4 72 -131 146 -282 190 -387
223 -457 220 -472 -1 -5 2 -8 7 -8 7 0 21 -27 36 -70 1 -3 14 -32 29 -65 15
-33 44 -96 63 -140 19 -44 42 -96 51 -115 9 -19 16 -37 17 -40 1 -3 10 -23 19
-45 65 -145 70 -158 68 -167 -1 -5 2 -8 8 -8 6 0 9 -3 8 -7 -1 -5 3 -17 9 -28
6 -11 12 -24 13 -30 1 -5 9 -26 17 -45 8 -19 24 -57 34 -84 11 -27 29 -69 40
-92 10 -24 19 -46 19 -49 0 -3 11 -31 25 -61 14 -30 25 -57 25 -61 0 -5 58
-156 85 -218 24 -56 60 -150 60 -157 0 -3 3 -10 8 -14 4 -4 7 -16 7 -26 0 -26
30 -22 31 5 0 12 2 31 5 42 2 11 6 45 9 75 2 30 5 55 5 55 3 0 8 33 14 91 4
32 9 73 12 89 3 17 7 55 9 85 2 30 5 55 5 55 1 0 8 74 14 150 9 103 19 282 20
337 1 32 5 58 9 58 4 0 3 8 -2 19 -6 10 -8 20 -6 23 4 4 17 142 17 178 -1 111
96 555 130 597 6 7 8 13 5 13 -23 0 176 417 204 428 5 2 9 9 9 15 1 37 279
357 310 357 5 0 15 8 22 18 7 10 36 33 63 52 28 19 52 37 53 42 2 4 8 8 14 8
5 0 15 6 22 13 7 6 31 26 52 42 102 79 274 281 274 321 0 8 4 14 8 14 7 0 32
63 37 90 0 3 3 10 7 15 30 49 44 385 15 385 -5 0 -6 4 -3 8 3 5 0 26 -6 48 -6
21 -12 44 -13 49 -1 6 -4 15 -5 20 -9 33 -56 147 -87 213 -21 42 -36 80 -35
85 1 4 -3 7 -8 7 -6 0 -10 4 -10 10 0 11 -107 199 -125 220 -8 8 -15 20 -16
25 -4 20 -158 254 -196 300 -5 6 -22 28 -38 50 -17 22 -37 48 -45 58 -85 107
-285 306 -533 530 -15 14 -46 39 -67 57 -21 18 -50 42 -63 53 -13 12 -43 38
-67 57 -23 19 -50 42 -60 50 -25 22 -79 63 -125 98 -22 17 -47 37 -55 44 -43
36 -130 98 -140 98 -5 0 -10 4 -10 8 0 10 -251 186 -400 280 -52 34 -100 66
-107 72 -7 5 -15 10 -19 10 -3 0 -26 14 -51 30 -24 17 -48 30 -54 30 -5 0 -9
5 -9 10 0 6 -4 10 -9 10 -5 0 -39 18 -75 40 -36 22 -70 40 -76 40 -5 0 -10 4
-10 8 0 5 -16 14 -35 22 -19 8 -35 17 -35 21 0 4 -8 9 -17 12 -16 5 -38 17
-143 77 -14 8 -31 15 -39 16 -8 2 -17 6 -20 11 -8 11 -26 21 -208 112 -225
112 -631 301 -649 301 -2 0 -32 13 -66 28 -35 16 -155 65 -268 109 -113 44
-214 84 -225 88 -11 5 -22 9 -25 10 -3 1 -18 7 -33 13 -16 7 -33 12 -38 12 -5
0 -17 4 -27 9 -21 12 -311 116 -352 126 -3 1 -12 5 -20 8 -24 10 -337 112
-450 147 -58 18 -130 40 -160 50 -30 9 -122 36 -205 59 -82 24 -157 45 -165
48 -8 3 -24 8 -35 10 -29 6 -38 9 -55 16 -8 4 -24 8 -35 10 -11 2 -27 7 -35
10 -8 4 -26 9 -40 11 -14 3 -40 9 -57 15 -18 5 -33 9 -34 8z"/>
<path d="M9862 6988 c-7 -7 -12 -9 -12 -5 0 4 -10 2 -22 -5 -13 -7 -25 -13
-28 -13 -3 0 -36 -15 -73 -33 -38 -18 -70 -32 -72 -32 -2 0 -38 -16 -79 -35
-42 -19 -78 -35 -81 -35 -2 0 -28 -11 -57 -24 -29 -14 -66 -28 -81 -31 -15 -4
-27 -11 -27 -15 0 -4 -11 -11 -25 -14 -14 -4 -49 -17 -78 -30 -28 -13 -74 -33
-102 -44 -27 -12 -125 -53 -216 -92 -91 -38 -171 -70 -178 -70 -6 0 -11 -4
-11 -10 0 -5 -8 -10 -18 -10 -10 0 -22 -3 -26 -7 -4 -5 -11 -8 -14 -9 -8 -1
-35 -12 -107 -45 -27 -12 -54 -23 -60 -25 -28 -7 -420 -184 -633 -285 -67 -33
-127 -59 -132 -59 -6 0 -10 -4 -10 -10 0 -5 -9 -10 -20 -10 -11 0 -20 -5 -20
-10 0 -6 -3 -9 -7 -8 -11 3 -399 -197 -413 -213 -3 -3 -27 -16 -53 -30 -26
-13 -57 -28 -67 -34 -11 -5 -20 -13 -20 -17 0 -5 -9 -8 -20 -8 -11 0 -20 -3
-20 -8 0 -4 -21 -18 -47 -32 -27 -13 -50 -27 -53 -30 -12 -14 -131 -90 -140
-90 -5 0 -10 -4 -10 -9 0 -5 -16 -19 -36 -32 -20 -12 -47 -33 -60 -46 -13 -13
-24 -22 -24 -19 0 3 -10 -5 -23 -17 -44 -41 -108 -97 -111 -97 -7 0 -172 -172
-198 -205 -13 -16 -30 -37 -38 -46 -34 -36 -60 -70 -60 -78 0 -5 -4 -11 -8
-13 -10 -4 -102 -135 -102 -145 0 -3 -6 -14 -14 -22 -28 -30 -176 -332 -180
-366 -1 -5 -7 -20 -14 -32 -7 -13 -10 -23 -7 -23 3 0 1 -8 -4 -18 -5 -10 -19
-54 -31 -98 -27 -102 -30 -112 -35 -153 -3 -18 -7 -36 -10 -40 -2 -4 -7 -32
-10 -62 -3 -30 -8 -61 -10 -69 -2 -8 -7 -59 -10 -112 -2 -54 -5 -101 -6 -105
-1 -5 -1 -10 0 -13 1 -3 3 -59 6 -125 2 -66 7 -138 10 -160 10 -73 15 -111 20
-135 3 -14 8 -38 11 -55 9 -45 8 -44 29 -130 10 -44 21 -82 24 -85 6 -5 9 -14
16 -50 2 -8 4 -15 5 -15 1 0 3 -9 5 -20 2 -12 12 -39 21 -60 10 -22 19 -47 20
-55 2 -8 7 -23 12 -35 75 -161 90 -195 85 -195 -3 0 -1 -6 5 -13 6 -7 25 -39
42 -72 17 -33 56 -100 86 -150 30 -49 60 -99 67 -110 7 -11 14 -22 17 -25 15
-13 121 -191 144 -241 28 -61 33 -121 14 -166 -7 -15 -33 -64 -58 -108 -25
-44 -61 -111 -80 -150 -19 -38 -38 -71 -42 -73 -5 -2 -8 -8 -8 -14 0 -9 -129
-273 -148 -303 -4 -5 -7 -12 -7 -15 -1 -9 -70 -145 -76 -150 -3 -3 -12 -22
-18 -42 -11 -33 -9 -48 24 -150 20 -62 46 -138 57 -168 11 -30 21 -59 22 -65
1 -5 10 -37 20 -70 l18 -59 71 145 c67 135 104 212 172 364 15 33 33 63 39 67
6 4 8 8 5 8 -4 0 9 35 28 78 19 42 37 85 40 95 3 9 10 17 16 17 6 0 8 2 5 6
-3 3 41 109 99 237 58 128 106 237 107 242 2 6 15 37 30 70 41 88 49 109 48
117 -1 3 5 12 13 18 8 7 15 18 15 25 0 11 16 49 80 190 5 11 25 55 44 98 20
44 36 80 36 83 0 2 16 38 36 81 20 43 45 98 56 123 105 238 356 759 378 785 7
8 10 15 6 15 -3 0 8 26 26 58 17 31 58 109 91 172 33 63 76 144 97 180 20 36
40 72 43 80 4 8 18 33 32 55 14 22 28 47 32 55 4 8 31 55 60 104 29 49 53 92
53 97 0 5 5 9 11 9 5 0 8 4 5 9 -4 5 -3 11 2 13 7 3 92 135 92 144 0 3 5 10
10 17 20 23 80 119 80 128 0 5 4 9 9 9 5 0 11 8 15 18 5 16 57 92 94 138 9 11
18 26 20 33 1 7 14 24 27 39 14 15 25 29 25 33 0 5 79 116 125 174 8 11 51 67
95 125 45 58 97 125 118 148 20 24 41 52 46 63 5 10 15 19 23 19 7 0 13 5 13
10 0 12 52 72 57 66 2 -2 -19 -47 -46 -100 -27 -53 -47 -96 -44 -96 4 0 -2 -9
-12 -20 -10 -11 -14 -20 -9 -20 5 0 5 -4 -1 -8 -10 -7 -20 -27 -161 -317 -42
-88 -82 -163 -88 -167 -6 -4 -8 -8 -4 -8 4 0 -30 -73 -74 -162 -45 -90 -82
-165 -83 -168 -4 -17 -90 -186 -98 -191 -5 -3 -8 -9 -8 -13 1 -3 -30 -71 -69
-151 -39 -80 -70 -148 -69 -151 0 -4 -3 -10 -8 -13 -5 -3 -17 -24 -28 -46 -10
-22 -98 -202 -195 -400 -98 -198 -244 -494 -324 -657 -81 -164 -146 -301 -145
-304 0 -4 -3 -10 -8 -13 -7 -5 -55 -97 -58 -111 0 -3 -29 -60 -62 -127 -34
-68 -59 -123 -55 -123 4 0 3 -4 -3 -8 -11 -8 -135 -253 -135 -267 0 -5 -7 -16
-15 -25 -15 -16 -12 -19 27 -36 24 -10 48 -19 53 -19 6 -1 19 -6 30 -12 34
-18 308 -108 357 -117 13 -3 23 -5 23 -6 0 -2 12 -4 55 -13 14 -3 32 -8 40
-11 14 -5 31 -8 123 -22 48 -7 72 -12 72 -14 0 -2 38 -6 145 -16 152 -13 401
-9 530 10 93 14 121 19 170 32 30 8 67 17 82 19 80 15 316 115 438 187 45 26
146 98 189 134 67 56 247 244 234 244 -2 0 1 6 7 13 38 45 50 61 50 68 0 4 6
14 13 21 24 26 134 237 142 272 1 6 8 25 15 41 17 42 67 217 73 257 3 18 7 40
10 48 3 8 8 35 11 60 4 25 8 59 11 75 12 75 25 178 30 235 1 19 6 62 10 95 4
33 8 79 9 102 1 24 5 43 9 43 4 0 3 8 -2 19 -6 10 -8 21 -4 24 3 4 7 30 9 59
2 29 6 85 9 123 2 39 7 126 11 195 3 69 8 168 11 220 7 150 8 1435 0 1640 -13
333 -17 434 -22 510 -3 41 -8 113 -10 160 -2 47 -7 121 -10 165 -4 44 -8 103
-10 130 -2 28 -4 50 -5 50 0 0 -3 27 -6 60 -2 33 -6 76 -9 95 -22 175 -33 208
-63 178z"/>
</g>
</svg>
